<?xml version="1.0" encoding="utf-8"?>
<!-- Generator: Adobe Illustrator 16.0.0, SVG Export Plug-In . SVG Version: 6.00 Build 0)  -->
<!DOCTYPE svg PUBLIC "-//W3C//DTD SVG 1.1//EN" "http://www.w3.org/Graphics/SVG/1.1/DTD/svg11.dtd">
<svg version="1.1" id="Camada_1" xmlns="http://www.w3.org/2000/svg" xmlns:xlink="http://www.w3.org/1999/xlink" x="0px" y="0px"
	 width="865.5px" height="542.584px" viewBox="0 0 865.5 542.584" enable-background="new 0 0 865.5 542.584" xml:space="preserve">
<g>
	<g>
		<radialGradient id="SVGID_1_" cx="432.6128" cy="271.8193" r="362.0527" gradientUnits="userSpaceOnUse">
			<stop  offset="0" style="stop-color:#662D91"/>
			<stop  offset="1" style="stop-color:#000000"/>
		</radialGradient>
		<rect x="-0.748" y="-0.876" fill="url(#SVGID_1_)" width="866.722" height="545.391"/>
		<g>
			<defs>
				<rect id="SVGID_2_" x="-1.852" y="-2.225" width="866.72" height="545.391"/>
			</defs>
			<clipPath id="SVGID_3_">
				<use xlink:href="#SVGID_2_"  overflow="visible"/>
			</clipPath>
		</g>
		<g>
			<rect x="-1.155" y="427.802" fill="#C48B47" width="866.691" height="116.521"/>
			
				<line fill="none" stroke="#AD722B" stroke-width="1.711" stroke-miterlimit="10" x1="-1.177" y1="433.239" x2="865.25" y2="433.239"/>
			
				<line fill="none" stroke="#AD722B" stroke-width="1.711" stroke-miterlimit="10" x1="-1.177" y1="455.668" x2="865.25" y2="455.668"/>
			
				<line fill="none" stroke="#AD722B" stroke-width="1.711" stroke-miterlimit="10" x1="-1.177" y1="478.098" x2="865.25" y2="478.098"/>
			<rect x="-1.177" y="498.491" fill="#AD722B" width="866.713" height="45.832"/>
		</g>
		<g>
			<g>
				<path fill="#B71400" d="M646.024-0.876c0,178.728,166.571,255.065,166.571,255.065v10.905c0,0-96.629,78.761-96.629,202.962
					c46.015,0,150.007,0,150.007,0V-0.876C865.974-0.876,681.915-0.876,646.024-0.876z"/>
				<rect x="810.473" y="254.188" fill="#D43D21" width="55.497" height="11.96"/>
			</g>
		</g>
		<g>
			<g>
				<path fill="#B71400" d="M219.202-0.876c0,178.728-166.573,255.065-166.573,255.065v10.905c0,0,96.631,78.761,96.631,202.962
					c-46.016,0-150.008,0-150.008,0V-0.876C-0.748-0.876,183.31-0.876,219.202-0.876z"/>
				<rect x="-1.187" y="254.188" fill="#D43D21" width="55.939" height="11.96"/>
			</g>
		</g>
	</g>
</g>
<g id="lights_1_">
	
		<radialGradient id="SVGID_4_" cx="871.9893" cy="-2571.5313" r="134.4509" gradientTransform="matrix(2.6168 0 0 0.2303 -1849.1802 1052.4655)" gradientUnits="userSpaceOnUse">
		<stop  offset="0" style="stop-color:#FFDEAD"/>
		<stop  offset="0.0712" style="stop-color:#F7D7A8"/>
		<stop  offset="0.1788" style="stop-color:#E3C59A"/>
		<stop  offset="0.3095" style="stop-color:#C1A883"/>
		<stop  offset="0.4583" style="stop-color:#917E62"/>
		<stop  offset="0.6224" style="stop-color:#544939"/>
		<stop  offset="0.7969" style="stop-color:#0B0A08"/>
		<stop  offset="0.8228" style="stop-color:#000000"/>
	</radialGradient>
	<path opacity="0.27" fill="url(#SVGID_4_)" d="M786.183,460.624c0,17.189-158.285,31.115-353.542,31.115
		c-195.257,0-353.541-13.926-353.541-31.115c0-17.183,158.284-31.111,353.541-31.111
		C627.898,429.513,786.183,443.441,786.183,460.624z"/>
	
		<radialGradient id="SVGID_5_" cx="3862.665" cy="-10.7314" r="522.5452" gradientTransform="matrix(-1.565 0 0 1.0165 6834.9102 -6.6509)" gradientUnits="userSpaceOnUse">
		<stop  offset="0" style="stop-color:#FFFFDE"/>
		<stop  offset="0.0849" style="stop-color:#F6F6D6"/>
		<stop  offset="0.2263" style="stop-color:#DCDCC0"/>
		<stop  offset="0.4067" style="stop-color:#B2B29B"/>
		<stop  offset="0.6192" style="stop-color:#797969"/>
		<stop  offset="0.8557" style="stop-color:#30302A"/>
		<stop  offset="1" style="stop-color:#000000"/>
	</radialGradient>
	<polygon opacity="0.35" fill="url(#SVGID_5_)" points="784.97,32.292 635.498,456.34 182.876,469.874 742.429,32.292 	"/>
	
		<radialGradient id="SVGID_6_" cx="2440.5146" cy="-9.2144" r="506.9368" gradientTransform="matrix(1.565 0 0 1.0165 -3773.0349 -6.6509)" gradientUnits="userSpaceOnUse">
		<stop  offset="0" style="stop-color:#FFFFEB"/>
		<stop  offset="0.1123" style="stop-color:#FAFAE7"/>
		<stop  offset="0.2363" style="stop-color:#EDEDDB"/>
		<stop  offset="0.366" style="stop-color:#D7D7C6"/>
		<stop  offset="0.4997" style="stop-color:#B8B8AA"/>
		<stop  offset="0.6363" style="stop-color:#909085"/>
		<stop  offset="0.7755" style="stop-color:#5F5F58"/>
		<stop  offset="0.9142" style="stop-color:#272724"/>
		<stop  offset="1" style="stop-color:#000000"/>
	</radialGradient>
	<polygon opacity="0.35" fill="url(#SVGID_6_)" points="51.1,32.292 171.157,456.34 636.185,449.723 90.374,32.292 	"/>
</g>
<g>
	<g>
		<path fill="#C1290E" d="M-0.333-0.711c-0.947,0-1.885-0.035-2.81-0.096v107.775c0,1.024,1.218,1.856,2.721,1.856h48.854
			c1.503,0,2.722-0.832,2.722-1.856V-0.711H-0.333z"/>
		<path fill="#D62E10" d="M-0.333-0.711c-0.912,0-1.813-0.033-2.706-0.091v107.77c0,1.024,1.22,1.856,2.724,1.856h9.083V-0.711
			H-0.333z"/>
		<path fill="#B0260D" d="M37.506-0.711v109.536h10.927c1.503,0,2.722-0.832,2.722-1.856V-0.711H37.506z"/>
		<rect x="50.514" y="-0.711" fill="#C1290E" width="54.298" height="96.875"/>
		<rect x="50.627" y="-0.711" fill="#A8240C" width="11.044" height="96.875"/>
		<rect x="61.671" y="-0.711" fill="#D62E10" width="14.55" height="96.875"/>
		<rect x="91.165" y="-0.711" fill="#B0260D" width="13.647" height="96.875"/>
		<polygon opacity="0.3" points="51.091,-1.109 51.197,95.643 56.714,95.643 51.483,-1.109 		"/>
		<polygon opacity="0.3" points="104.245,-1.109 94.854,95.643 105.334,95.643 105.334,-1.109 		"/>
	</g>
	<g>
		<path fill="#C1290E" d="M108.004-0.711c-0.946,0-1.884-0.035-2.809-0.096v107.775c0,1.024,1.217,1.856,2.721,1.856h48.854
			c1.504,0,2.723-0.832,2.723-1.856V-0.711H108.004z"/>
		<path fill="#D62E10" d="M108.004-0.711c-0.911,0-1.813-0.033-2.706-0.091v107.77c0,1.024,1.22,1.856,2.724,1.856h9.083V-0.711
			H108.004z"/>
		<path fill="#B0260D" d="M145.844-0.711v109.536h10.926c1.504,0,2.723-0.832,2.723-1.856V-0.711H145.844z"/>
		<rect x="158.852" y="-0.711" fill="#C1290E" width="54.298" height="96.875"/>
		<rect x="158.964" y="-0.711" fill="#A8240C" width="11.045" height="96.875"/>
		<rect x="170.009" y="-0.711" fill="#D62E10" width="14.549" height="96.875"/>
		<rect x="199.501" y="-0.711" fill="#B0260D" width="13.648" height="96.875"/>
		<polygon opacity="0.3" points="159.429,-1.109 159.535,95.643 165.052,95.643 159.821,-1.109 		"/>
		<polygon opacity="0.3" points="212.582,-1.109 203.191,95.643 213.672,95.643 213.672,-1.109 		"/>
	</g>
	<g>
		<path fill="#C1290E" d="M216.341-0.711c-0.946,0-1.884-0.035-2.809-0.096v107.775c0,1.024,1.218,1.856,2.722,1.856h48.854
			c1.504,0,2.723-0.832,2.723-1.856V-0.711H216.341z"/>
		<path fill="#D62E10" d="M216.341-0.711c-0.912,0-1.813-0.033-2.706-0.091v107.77c0,1.024,1.22,1.856,2.724,1.856h9.083V-0.711
			H216.341z"/>
		<path fill="#B0260D" d="M254.182-0.711v109.536h10.926c1.504,0,2.723-0.832,2.723-1.856V-0.711H254.182z"/>
		<rect x="267.189" y="-0.711" fill="#C1290E" width="54.298" height="96.875"/>
		<rect x="267.301" y="-0.711" fill="#A8240C" width="11.045" height="96.875"/>
		<rect x="278.346" y="-0.711" fill="#D62E10" width="14.549" height="96.875"/>
		<rect x="307.839" y="-0.711" fill="#B0260D" width="13.648" height="96.875"/>
		<polygon opacity="0.3" points="267.767,-1.109 267.872,95.643 273.389,95.643 268.159,-1.109 		"/>
		<polygon opacity="0.3" points="320.92,-1.109 311.528,95.643 322.01,95.643 322.01,-1.109 		"/>
	</g>
	<g>
		<path fill="#C1290E" d="M324.679-0.711c-0.947,0-1.885-0.035-2.809-0.096v107.775c0,1.024,1.218,1.856,2.721,1.856h48.855
			c1.503,0,2.722-0.832,2.722-1.856V-0.711H324.679z"/>
		<path fill="#D62E10" d="M324.679-0.711c-0.912,0-1.813-0.033-2.706-0.091v107.77c0,1.024,1.22,1.856,2.723,1.856h9.083V-0.711
			H324.679z"/>
		<path fill="#B0260D" d="M362.519-0.711v109.536h10.927c1.503,0,2.722-0.832,2.722-1.856V-0.711H362.519z"/>
		<rect x="375.526" y="-0.711" fill="#C1290E" width="54.298" height="96.875"/>
		<rect x="375.639" y="-0.711" fill="#A8240C" width="11.044" height="96.875"/>
		<rect x="386.684" y="-0.711" fill="#D62E10" width="14.55" height="96.875"/>
		<rect x="416.176" y="-0.711" fill="#B0260D" width="13.648" height="96.875"/>
		<polygon opacity="0.3" points="376.104,-1.109 376.209,95.643 381.727,95.643 376.496,-1.109 		"/>
		<polygon opacity="0.3" points="429.257,-1.109 419.866,95.643 430.347,95.643 430.347,-1.109 		"/>
	</g>
	<g>
		<path fill="#C1290E" d="M433.017-0.711c-0.947,0-1.884-0.035-2.81-0.096v107.775c0,1.024,1.218,1.856,2.722,1.856h48.854
			c1.503,0,2.722-0.832,2.722-1.856V-0.711H433.017z"/>
		<path fill="#D62E10" d="M433.017-0.711c-0.911,0-1.813-0.033-2.706-0.091v107.77c0,1.024,1.22,1.856,2.725,1.856h9.083V-0.711
			H433.017z"/>
		<path fill="#B0260D" d="M470.856-0.711v109.536h10.927c1.503,0,2.722-0.832,2.722-1.856V-0.711H470.856z"/>
		<rect x="483.864" y="-0.711" fill="#C1290E" width="54.298" height="96.875"/>
		<rect x="483.977" y="-0.711" fill="#A8240C" width="11.044" height="96.875"/>
		<rect x="495.021" y="-0.711" fill="#D62E10" width="14.55" height="96.875"/>
		<rect x="524.515" y="-0.711" fill="#B0260D" width="13.647" height="96.875"/>
		<polygon opacity="0.3" points="484.441,-1.109 484.547,95.643 490.064,95.643 484.833,-1.109 		"/>
		<polygon opacity="0.3" points="537.595,-1.109 528.204,95.643 538.684,95.643 538.684,-1.109 		"/>
	</g>
	<g>
		<path fill="#C1290E" d="M541.355-0.711c-0.948,0-1.885-0.035-2.811-0.096v107.775c0,1.024,1.218,1.856,2.722,1.856h48.854
			c1.503,0,2.722-0.832,2.722-1.856V-0.711H541.355z"/>
		<path fill="#D62E10" d="M541.355-0.711c-0.913,0-1.814-0.033-2.707-0.091v107.77c0,1.024,1.22,1.856,2.724,1.856h9.083V-0.711
			H541.355z"/>
		<path fill="#B0260D" d="M579.195-0.711v109.536h10.926c1.503,0,2.722-0.832,2.722-1.856V-0.711H579.195z"/>
		<rect x="592.201" y="-0.711" fill="#C1290E" width="54.299" height="96.875"/>
		<rect x="592.313" y="-0.711" fill="#A8240C" width="11.045" height="96.875"/>
		<rect x="603.359" y="-0.711" fill="#D62E10" width="14.549" height="96.875"/>
		<rect x="632.851" y="-0.711" fill="#B0260D" width="13.649" height="96.875"/>
		<polygon opacity="0.3" points="592.779,-1.109 592.885,95.643 598.401,95.643 593.169,-1.109 		"/>
		<polygon opacity="0.3" points="645.932,-1.109 636.541,95.643 647.021,95.643 647.021,-1.109 		"/>
	</g>
	<g>
		<path fill="#C1290E" d="M649.691-0.711c-0.945,0-1.885-0.035-2.809-0.096v107.775c0,1.024,1.218,1.856,2.721,1.856h48.854
			c1.503,0,2.722-0.832,2.722-1.856V-0.711H649.691z"/>
		<path fill="#D62E10" d="M649.691-0.711c-0.912,0-1.813-0.033-2.706-0.091v107.77c0,1.024,1.221,1.856,2.724,1.856h9.084V-0.711
			H649.691z"/>
		<path fill="#B0260D" d="M687.531-0.711v109.536h10.927c1.503,0,2.722-0.832,2.722-1.856V-0.711H687.531z"/>
		<rect x="700.539" y="-0.711" fill="#C1290E" width="54.298" height="96.875"/>
		<rect x="700.65" y="-0.711" fill="#A8240C" width="11.045" height="96.875"/>
		<rect x="711.695" y="-0.711" fill="#D62E10" width="14.551" height="96.875"/>
		<rect x="741.189" y="-0.711" fill="#B0260D" width="13.647" height="96.875"/>
		<polygon opacity="0.3" points="701.116,-1.109 701.221,95.643 706.738,95.643 701.507,-1.109 		"/>
		<polygon opacity="0.3" points="754.27,-1.109 744.878,95.643 755.36,95.643 755.36,-1.109 		"/>
	</g>
	<g>
		<path fill="#C1290E" d="M758.028-0.711c-0.945,0-1.883-0.035-2.81-0.096v107.775c0,1.024,1.219,1.856,2.723,1.856h48.854
			c1.503,0,2.722-0.832,2.722-1.856V-0.711H758.028z"/>
		<path fill="#D62E10" d="M758.028-0.711c-0.91,0-1.812-0.033-2.706-0.091v107.77c0,1.024,1.222,1.856,2.725,1.856h9.083V-0.711
			H758.028z"/>
		<path fill="#B0260D" d="M795.869-0.711v109.536h10.926c1.503,0,2.722-0.832,2.722-1.856V-0.711H795.869z"/>
		<rect x="808.876" y="-0.711" fill="#C1290E" width="54.299" height="96.875"/>
		<rect x="808.988" y="-0.711" fill="#A8240C" width="11.044" height="96.875"/>
		<rect x="820.032" y="-0.711" fill="#D62E10" width="14.55" height="96.875"/>
		<rect x="849.526" y="-0.711" fill="#B0260D" width="13.648" height="96.875"/>
		<polygon opacity="0.3" points="809.453,-1.109 809.559,95.643 815.078,95.643 809.845,-1.109 		"/>
		<polygon opacity="0.3" points="862.606,-1.109 853.215,95.643 863.697,95.643 863.697,-1.109 		"/>
	</g>
</g>
<linearGradient id="SVGID_7_" gradientUnits="userSpaceOnUse" x1="76.0615" y1="470.1689" x2="422.5532" y2="470.1689">
	<stop  offset="0" style="stop-color:#603813"/>
	<stop  offset="0.1175" style="stop-color:#69411B"/>
	<stop  offset="0.3128" style="stop-color:#835A32"/>
	<stop  offset="0.5271" style="stop-color:#A67C52"/>
	<stop  offset="0.9852" style="stop-color:#754C24"/>
</linearGradient>
<polyline fill="url(#SVGID_7_)" points="76.062,404.617 116.935,543 388.35,543 422.553,397.337 "/>
<g>
	<path fill="#C7B299" d="M246.645,485.312c-46.423,0-90.103-9.446-122.994-26.597c-33.364-17.396-51.738-40.697-51.738-65.61
		c0-24.913,18.374-48.214,51.738-65.611c32.891-17.15,76.57-26.596,122.994-26.596c46.423,0,90.103,9.445,122.994,26.596
		c33.363,17.397,51.737,40.698,51.737,65.611c0,24.913-18.374,48.213-51.737,65.61C336.748,475.865,293.067,485.312,246.645,485.312
		z"/>
	<path fill="#42210B" d="M246.645,303.186c95.238,0,172.443,40.258,172.443,89.919c0,49.661-77.206,89.918-172.443,89.918
		c-95.238,0-172.444-40.258-172.444-89.918C74.201,343.443,151.407,303.186,246.645,303.186 M246.645,298.61
		c-46.785,0-90.84,9.538-124.052,26.855c-16.395,8.549-29.312,18.56-38.394,29.756c-9.67,11.922-14.573,24.668-14.573,37.883
		s4.903,25.96,14.573,37.882c9.082,11.195,21.999,21.207,38.394,29.756c33.211,17.317,77.267,26.855,124.052,26.855
		c46.784,0,90.84-9.538,124.051-26.855c16.395-8.549,29.312-18.561,38.394-29.756c9.67-11.922,14.574-24.667,14.574-37.882
		s-4.904-25.961-14.574-37.883c-9.082-11.196-21.999-21.207-38.394-29.756C337.485,308.148,293.429,298.61,246.645,298.61
		L246.645,298.61z"/>
</g>
<linearGradient id="SVGID_8_" gradientUnits="userSpaceOnUse" x1="483.7402" y1="469.9424" x2="835.1689" y2="469.9424">
	<stop  offset="0" style="stop-color:#603813"/>
	<stop  offset="0.1175" style="stop-color:#69411B"/>
	<stop  offset="0.3128" style="stop-color:#835A32"/>
	<stop  offset="0.5271" style="stop-color:#A67C52"/>
	<stop  offset="0.9852" style="stop-color:#754C24"/>
</linearGradient>
<polyline fill="url(#SVGID_8_)" points="483.74,405.156 525.196,542 800.479,542 835.169,397.884 "/>
<g>
	<path fill="#C7B299" d="M658.555,485.312c-46.422,0-90.103-9.446-122.993-26.597c-33.363-17.396-51.737-40.697-51.737-65.61
		c0-24.913,18.374-48.214,51.737-65.611c32.891-17.15,76.571-26.596,122.993-26.596c46.423,0,90.104,9.445,122.994,26.596
		c33.363,17.397,51.738,40.698,51.738,65.611c0,24.913-18.375,48.213-51.738,65.61C748.658,475.865,704.978,485.312,658.555,485.312
		z"/>
	<path fill="#42210B" d="M658.555,303.186c95.239,0,172.444,40.258,172.444,89.919c0,49.661-77.205,89.918-172.444,89.918
		c-95.237,0-172.443-40.258-172.443-89.918C486.111,343.443,563.317,303.186,658.555,303.186 M658.555,298.61
		c-46.784,0-90.839,9.538-124.05,26.855c-16.396,8.549-29.313,18.56-38.395,29.756c-9.67,11.922-14.573,24.668-14.573,37.883
		s4.903,25.96,14.573,37.882c9.082,11.195,21.999,21.207,38.395,29.756c33.211,17.317,77.266,26.855,124.05,26.855
		c46.785,0,90.841-9.538,124.052-26.855c16.395-8.549,29.313-18.561,38.395-29.756c9.67-11.922,14.573-24.667,14.573-37.882
		s-4.903-25.961-14.573-37.883c-9.082-11.196-22-21.207-38.395-29.756C749.396,308.148,705.34,298.61,658.555,298.61L658.555,298.61
		z"/>
</g>
</svg>
